<?xml version="1.0" encoding="iso-8859-1"?>
<!-- Generator: Adobe Illustrator 19.0.0, SVG Export Plug-In . SVG Version: 6.00 Build 0)  -->
<svg version="1.1" id="Capa_1" xmlns="http://www.w3.org/2000/svg" xmlns:xlink="http://www.w3.org/1999/xlink" x="0px" y="0px"
	 viewBox="0 0 512 512" style="enable-background:new 0 0 512 512;" xml:space="preserve">
<path style="fill:#9FEDFF;" d="M462.624,254.609c0.144,25.064-4.564,49.037-13.228,71.01
	c-24.601,62.419-81.178,108.808-149.644,118.873c-8.798,1.298-17.791,1.988-26.939,2.04
	C167.404,447.119,81.477,362.14,80.89,256.731c-0.134-24.817,4.471-48.552,12.97-70.351
	c20.604-52.869,64.108-94.334,118.388-112.115c18.399-6.047,38.045-9.354,58.452-9.467c60.09-0.33,113.856,27.145,149.077,70.361
	c15.896,19.501,28.011,42.196,35.232,66.993C459.873,218.8,462.52,236.406,462.624,254.609z"/>
<g>
	<path style="fill:#4AD4FF;" d="M212.248,74.266v123.9c0,9.292-9.88,15.257-18.111,10.941l-40.62-21.304
		c-1.772-0.937-3.75-1.422-5.748-1.422H93.86C114.463,133.511,157.968,92.047,212.248,74.266z"/>
	<path style="fill:#4AD4FF;" d="M455.01,202.152h-21.52c-1.999,0-3.977,0.484-5.748,1.411l-9.941,5.213
		c-8.231,4.327-18.1-1.648-18.1-10.941v-50.314c0-6.83,5.532-12.362,12.362-12.362h7.716
		C435.674,154.661,447.789,177.356,455.01,202.152z"/>
	<path style="fill:#4AD4FF;" d="M449.396,325.62c-24.601,62.419-81.178,108.808-149.644,118.873V313.834
		c0-9.292,9.88-15.257,18.111-10.941l40.62,21.304c1.772,0.937,3.75,1.422,5.749,1.422L449.396,325.62L449.396,325.62z"/>
	<path style="fill:#4AD4FF;" d="M340.763,222.475h66.616c6.827,0,12.362,5.535,12.362,12.362v42.269
		c0,6.827-5.535,12.362-12.362,12.362h-45.186c-2.001,0-3.971,0.486-5.743,1.415l-9.943,5.216
		c-8.231,4.318-18.105-1.652-18.105-10.947v-50.315C328.4,228.01,333.935,222.475,340.763,222.475z"/>
	<path style="fill:#4AD4FF;" d="M136.914,277.525h66.616c6.827,0,12.362,5.535,12.362,12.362v42.269
		c0,6.827-5.535,12.362-12.362,12.362h-45.187c-2.001,0-3.971,0.486-5.743,1.415l-9.943,5.216
		c-8.231,4.318-18.105-1.652-18.105-10.947v-50.315C124.552,283.06,130.087,277.525,136.914,277.525z"/>
</g>
<path style="fill:#159BFF;" d="M462.428,199.993c-7.438-25.54-19.772-48.995-36.661-69.714
	C387.813,83.71,331.741,57.07,271.771,57.07c-0.368,0-0.744,0.001-1.113,0.003c-20.816,0.115-41.28,3.431-60.814,9.851
	c-27.662,9.061-53.506,24.496-74.736,44.636c-21.155,20.068-37.907,44.971-48.447,72.014c-9.093,23.321-13.633,47.949-13.497,73.201
	c0.608,109.128,89.579,197.487,198.57,197.487c0.374,0,0.749-0.001,1.123-0.003c9.41-0.053,18.839-0.768,28.019-2.123
	c70.034-10.295,129.698-57.687,155.708-123.682c9.281-23.538,13.913-48.398,13.767-73.888
	C470.244,235.987,467.578,217.624,462.428,199.993z M413.789,140.041c15.574,19.107,26.947,40.73,33.804,64.278
	c4.034,13.808,6.396,28.108,7.081,42.605l-67.56,0.375c-1.039-37.836-8.137-73.803-20.463-104.403
	c10.699-5.946,20.88-12.902,30.399-20.812C402.971,127.651,408.57,133.637,413.789,140.041z M278.468,73.041
	c23.049,3.166,44.836,21.009,62.035,51.077c2.138,3.738,4.168,7.619,6.1,11.616c-21.165,9.717-44.123,15.369-67.695,16.488
	L278.468,73.041z M353.917,116.446c-8.233-14.393-17.527-26.345-27.595-35.666c21.316,6.627,41.245,17.124,58.851,31.049
	c-7.833,6.324-16.131,11.963-24.809,16.873C358.321,124.489,356.175,120.394,353.917,116.446z M263.015,73.132l0.44,79.171
	c-23.569-0.872-46.59-6.27-67.861-15.757c1.884-4.009,3.866-7.902,5.958-11.654C218.416,94.633,240.004,76.553,263.015,73.132z
	 M263.541,167.763l0.446,80.221l-92.22,0.513c0.611-35.43,6.776-69.062,17.774-97.721
	C212.731,161.082,237.833,166.904,263.541,167.763z M264.073,263.437l0.446,80.216c-25.698,1.137-50.739,7.233-73.816,17.792
	c-11.31-28.531-17.846-62.083-18.85-97.495L264.073,263.437z M264.605,359.113l0.44,79.181
	c-23.049-3.166-44.836-21.008-62.035-51.077c-2.138-3.738-4.168-7.619-6.101-11.616
	C218.074,365.883,241.033,360.232,264.605,359.113z M189.597,394.889c8.217,14.366,17.497,26.284,27.543,35.595
	c-21.535-6.745-41.377-17.371-58.703-31.057c7.805-6.292,16.071-11.903,24.714-16.794
	C185.193,386.847,187.338,390.941,189.597,394.889z M361.756,381.67c8.709,4.804,17.053,10.327,24.936,16.546
	c-17.268,13.928-37.031,24.736-58.386,31.676c9.946-9.427,19.093-21.462,27.153-35.924
	C357.668,390.003,359.764,385.895,361.756,381.67z M341.961,386.445c-16.863,30.258-38.451,48.338-61.463,51.759l-0.44-79.168
	c23.58,0.866,46.598,6.26,67.865,15.745C346.037,378.793,344.054,382.689,341.961,386.445z M279.972,343.573l-0.446-80.222
	l92.22-0.513c-0.611,35.43-6.776,69.062-17.774,97.722C330.782,350.254,305.68,344.432,279.972,343.573z M279.44,247.898
	l-0.446-80.217c25.698-1.136,50.739-7.229,73.818-17.785c11.309,28.529,17.843,62.079,18.847,97.489L279.44,247.898z
	 M214.661,81.606c0.195-0.064,0.391-0.123,0.586-0.186c-9.96,9.43-19.122,21.47-27.192,35.949
	c-2.208,3.963-4.303,8.069-6.294,12.292c-8.714-4.806-17.058-10.341-24.944-16.564C174.035,99.226,193.783,88.445,214.661,81.606z
	 M145.03,123.464c9.597,7.798,19.842,14.639,30.595,20.464c-11.993,30.742-18.695,66.796-19.313,104.654l-67.57,0.376
	c0.738-20.587,4.865-40.66,12.317-59.772C110.657,164.556,125.856,141.857,145.03,123.464z M88.833,264.411l67.565-0.375
	c1.039,37.84,8.138,73.811,20.467,104.413c-10.667,5.93-20.825,12.855-30.32,20.736C112.913,357.631,91.157,313.547,88.833,264.411z
	 M398.474,387.863c-9.595-7.795-19.836-14.633-30.586-20.456c11.993-30.742,18.695-66.797,19.313-104.655l67.572-0.376
	c-0.74,20.807-4.95,41.095-12.565,60.41C432.364,347.764,417.286,369.844,398.474,387.863z"/>
<path style="fill:#C3D24C;" d="M358.137,337.98l-40.429-21.209c-2.541-1.333-5.59,0.51-5.59,3.38v138.477
	c0,3.414,2.767,6.181,6.181,6.181h187.52c3.414,0,6.181-2.767,6.181-6.181V344.161c0-3.414-2.767-6.181-6.181-6.181H358.137z"/>
<g>
	<path style="fill:#159BFF;" d="M471.851,379.533h-84.449c-4.267,0-7.726-3.459-7.726-7.726c0-4.268,3.459-7.726,7.726-7.726h84.449
		c4.267,0,7.726,3.459,7.726,7.726C479.577,376.074,476.118,379.533,471.851,379.533z"/>
	<path style="fill:#159BFF;" d="M360.897,379.533h-8.63c-4.267,0-7.726-3.459-7.726-7.726c0-4.268,3.459-7.726,7.726-7.726h8.63
		c4.267,0,7.726,3.459,7.726,7.726C368.623,376.074,365.164,379.533,360.897,379.533z"/>
	<path style="fill:#159BFF;" d="M471.851,409.121H352.267c-4.267,0-7.726-3.459-7.726-7.726c0-4.268,3.459-7.726,7.726-7.726
		h119.584c4.267,0,7.726,3.459,7.726,7.726C479.577,405.662,476.118,409.121,471.851,409.121z"/>
	<path style="fill:#159BFF;" d="M471.851,438.708H458.29c-4.267,0-7.726-3.459-7.726-7.726s3.459-7.726,7.726-7.726h13.561
		c4.267,0,7.726,3.459,7.726,7.726S476.118,438.708,471.851,438.708z"/>
	<path style="fill:#159BFF;" d="M433.634,438.708h-81.367c-4.267,0-7.726-3.459-7.726-7.726s3.459-7.726,7.726-7.726h81.367
		c4.267,0,7.726,3.459,7.726,7.726S437.901,438.708,433.634,438.708z"/>
</g>
<path style="fill:#4AD4FF;" d="M207.739,238.009c-17.428,0-31.606-14.178-31.606-31.606s14.178-31.607,31.606-31.607
	s31.607,14.179,31.607,31.607S225.167,238.009,207.739,238.009z"/>
<path style="fill:#FC4747;" d="M226.98,206.407c0,10.621-8.612,19.244-19.244,19.244c-10.621,0-19.244-8.623-19.244-19.244
	c0-0.082,0-0.175,0.01-0.258c0.134-10.518,8.695-18.986,19.234-18.986c1.555,0,3.07,0.185,4.512,0.536
	C220.706,189.728,226.98,197.331,226.98,206.407z"/>
<path style="fill:#E20F0A;" d="M212.248,187.699v10.467c0,9.292-9.88,15.257-18.111,10.941l-5.635-2.957
	c0.134-10.518,8.695-18.986,19.234-18.986C209.292,187.163,210.806,187.349,212.248,187.699z"/>
<path style="fill:#89BF4A;" d="M153.863,174.02l40.209,21.093c2.642,1.386,5.81-0.53,5.81-3.513V53.372
	c0-3.414-2.767-6.181-6.181-6.181H6.181C2.767,47.191,0,49.958,0,53.372v114.467c0,3.414,2.767,6.181,6.181,6.181H153.863z"/>
<g>
	<path style="fill:#E3E3E3;" d="M124.598,147.92H40.149c-4.267,0-7.726-3.459-7.726-7.726s3.459-7.726,7.726-7.726h84.449
		c4.267,0,7.726,3.459,7.726,7.726S128.865,147.92,124.598,147.92z"/>
	<path style="fill:#E3E3E3;" d="M159.733,147.92h-8.63c-4.267,0-7.726-3.459-7.726-7.726s3.459-7.726,7.726-7.726h8.63
		c4.267,0,7.726,3.459,7.726,7.726S164,147.92,159.733,147.92z"/>
	<path style="fill:#E3E3E3;" d="M159.733,118.332H40.149c-4.267,0-7.726-3.459-7.726-7.726c0-4.268,3.459-7.726,7.726-7.726h119.584
		c4.267,0,7.726,3.459,7.726,7.726S164,118.332,159.733,118.332z"/>
	<path style="fill:#E3E3E3;" d="M53.71,88.744H40.149c-4.267,0-7.726-3.459-7.726-7.726c0-4.268,3.459-7.726,7.726-7.726H53.71
		c4.267,0,7.726,3.459,7.726,7.726C61.436,85.286,57.977,88.744,53.71,88.744z"/>
	<path style="fill:#E3E3E3;" d="M159.733,88.744H78.366c-4.267,0-7.726-3.459-7.726-7.726c0-4.268,3.459-7.726,7.726-7.726h81.367
		c4.267,0,7.726,3.459,7.726,7.726C167.459,85.286,164,88.744,159.733,88.744z"/>
</g>
<path style="fill:#FC4747;" d="M427.396,189.787l-12.2,6.4c-1.426,0.748-3.137-0.286-3.137-1.897v-40.591
	c0-3.414,2.767-6.181,6.181-6.181h54.254c3.414,0,6.181,2.767,6.181,6.181v29.907c0,3.414-2.767,6.181-6.181,6.181L427.396,189.787
	L427.396,189.787z"/>
<path style="fill:#FFB229;" d="M152.251,332.156l-12.2,6.4c-1.426,0.748-3.137-0.286-3.137-1.897v-40.591
	c0-3.414,2.767-6.181,6.181-6.181h54.254c3.414,0,6.181,2.767,6.181,6.181v29.907c0,3.414-2.767,6.181-6.181,6.181H152.251z"/>
<path style="fill:#C97F4C;" d="M356.1,277.106l-12.2,6.4c-1.426,0.748-3.137-0.286-3.137-1.897v-40.591
	c0-3.414,2.767-6.181,6.181-6.181h54.254c3.414,0,6.181,2.767,6.181,6.181v29.907c0,3.414-2.767,6.181-6.181,6.181H356.1z"/>
<g>
</g>
<g>
</g>
<g>
</g>
<g>
</g>
<g>
</g>
<g>
</g>
<g>
</g>
<g>
</g>
<g>
</g>
<g>
</g>
<g>
</g>
<g>
</g>
<g>
</g>
<g>
</g>
<g>
</g>
</svg>
